#!OML:ASF F:\VICON\USERDATA\INSTALL\rory3\rory3.ASF
:FULLY-SPECIFIED
:DEGREES
4151
root -4.86641 14.4333 -13.562 -584.802 -80.3064 585.175
lowerback 15.529 5.00003 -1.403
upperback -2.44145 6.68414 2.50557
thorax -11.8988 3.34215 1.81805
lowerneck -12.0853 -6.58207 -0.879946
upperneck 20.336 -9.86973 2.87528
head 8.51403 -4.54557 0.0100771
rclavicle -3.57067e-014 -3.04141e-014
rhumerus -18.8074 32.919 -98.6589
rradius 52.4351
rwrist -56.2659
rhand -10.7066 5.29148
rfingers 7.12502
rthumb 15.3031 -24.1223
lclavicle -3.57067e-014 -3.04141e-014
lhumerus 49.8158 -39.2142 23.567
lradius 89.4978
lwrist 29.9902
lhand 2.21326 22.4717
lfingers 7.12502
lthumb 27.7085 50.4503
rfemur 15.9708 2.40925 11.2626
rtibia 27.1858
rfoot -21.1723 -22.3222
rtoes -43.3735
lfemur -43.4967 3.85662 -15.2896
ltibia 74.9787
lfoot -25.9337 1.7831
ltoes -9.56608
4152
root -4.87235 14.4426 -13.5494 -584.321 -80.1542 584.686
lowerback 15.5946 4.97663 -1.4539
upperback -2.45104 6.65223 2.59172
thorax -11.9644 3.33353 1.94354
lowerneck -11.9692 -6.55214 -1.04784
upperneck 20.1662 -9.80607 2.99191
head 8.44918 -4.5212 0.0898478
rclavicle 4.723e-014 -4.37326e-015
rhumerus -18.8431 33.2561 -98.7704
rradius 52.4431
rwrist -56.6134
rhand -10.7293 5.30925
rfingers 7.12502
rthumb 15.2813 -24.1062
lclavicle 4.723e-014 -4.37326e-015
lhumerus 49.4203 -39.2376 23.7284
lradius 89.689
lwrist 29.8972
lhand 2.16291 22.4223
lfingers 7.12502
lthumb 27.6604 50.4086
rfemur 15.8221 2.23119 11.1345
rtibia 27.3036
rfoot -20.6059 -22.5013
rtoes -44.2349
lfemur -43.3796 4.02974 -15.1645
ltibia 74.9242
lfoot -26.0324 0.0652021
ltoes -3.46019
4153
root -4.8775 14.4508 -13.5397 -583.272 -80.0401 583.676
lowerback 15.5327 4.97819 -1.7022
upperback -2.43157 6.61497 2.67493
thorax -11.9454 3.33725 2.18801
lowerneck -12.0295 -6.51249 -1.18049
upperneck 20.1792 -9.73809 3.05462
head 8.47324 -4.49088 0.136407
rclavicle -6.62139e-014 1.05356e-014
rhumerus -18.8211 33.664 -98.8702
rradius 52.4315
rwrist -56.9104
rhand -10.9608 5.16984
rfingers 7.12502
rthumb 15.0583 -24.2625
lclavicle -6.62139e-014 1.05356e-014
lhumerus 48.9758 -39.1293 23.9501
lradius 89.7849
lwrist 29.6399
lhand 2.18915 22.5561
lfingers 7.12502
lthumb 27.6855 50.5383
rfemur 15.5873 2.16145 10.952
rtibia 27.4669
rfoot -20.0687 -22.6672
rtoes -45.1055
lfemur -43.3291 4.49261 -15.2309
ltibia 74.8441
lfoot -26.0916 -0.118295
ltoes -3.75475
4154
root -4.883 14.4562 -13.5276 -582.19 -79.9323 582.635
lowerback 15.4901 4.9944 -1.78766
upperback -2.43604 6.61721 2.6405
thorax -11.9314 3.34336 2.20024
lowerneck -12.1482 -6.50563 -1.39961
upperneck 20.308 -9.7584 3.33327
head 8.5659 -4.48481 0.252815
rclavicle 7.87125e-014 7.95139e-015
rhumerus -18.7766 33.6941 -99.039
rradius 52.4154
rwrist -57.1986
rhand -11.0033 5.14863
rfingers 7.12502
rthumb 15.0173 -24.2868
lclavicle 7.87125e-014 7.95139e-015
lhumerus 48.8236 -39.0135 24.0537
lradius 89.775
lwrist 29.226
lhand 2.52826 22.6273
lfingers 7.12502
lthumb 28.0097 50.557
rfemur 15.316 2.19144 10.7664
rtibia 27.7217
rfoot -20.0348 -22.4974
rtoes -44.9603
lfemur -43.2795 4.60036 -15.3445
ltibia 74.788
lfoot -26.1164 0.256017
ltoes -4.59378
4155
root -4.88445 14.4544 -13.5179 -581.656 -79.7844 582.104
lowerback 15.5058 5.01705 -1.81345
upperback -2.41145 6.64433 2.66758
thorax -11.9215 3.35854 2.2367
lowerneck -12.2117 -6.54268 -1.60322
upperneck 20.3127 -9.79507 3.45951
head 8.59756 -4.50247 0.319794
rclavicle -1.7698e-014 4.17448e-015
rhumerus -18.6419 33.7542 -99.086
rradius 52.3641
rwrist -57.4437
rhand -10.9733 5.09238
rfingers 7.12502
rthumb 15.0462 -24.3409
lclavicle -1.7698e-014 4.17448e-015
lhumerus 48.89 -38.9084 24.0554
lradius 89.7265
lwrist 29.1501
lhand 2.69808 22.3732
lfingers 7.12502
lthumb 28.172 50.2763
rfemur 15.0327 2.15358 10.6903
rtibia 28.0492
rfoot -20.1758 -22.231
rtoes -44.419
lfemur -43.2476 4.44267 -15.3436
ltibia 74.7932
lfoot -26.123 0.541317
ltoes -4.74304
